<svg xmlns:xlink="http://www.w3.org/1999/xlink" xmlns="http://www.w3.org/2000/svg" width="178.292" height="122.744" viewBox="0 0 178.292 122.744">
  <g id="Grupo_5" data-name="Grupo 5" transform="translate(-310.277 -225.046)">
    <path id="Caminho_4" data-name="Caminho 4" d="M387.446,335a35.417,35.417,0,0,1-8.362-2.915l-4.253,10.9a40.755,40.755,0,0,0,8.409,3.226Z" fill="#000"/>
    <path id="Caminho_5" data-name="Caminho 5" d="M394.569,347.79a38.441,38.441,0,0,0,12.39-1.957l-12.266-10.045c-.078,0-.154.007-.233.007a31.836,31.836,0,0,1-5.189-.445l-4.241,11.311A43.486,43.486,0,0,0,394.569,347.79Z" fill="#000"/>
    <path id="Caminho_6" data-name="Caminho 6" d="M394.242,267.965c-16.031,0-24.646,12.432-24.646,27.7,0,14.325,7.969,26.537,22.1,27.99l4.349-11.6c-8.01-.749-12.385-7.668-12.385-16.827,0-9.379,4.58-15.485,12.977-15.485,3.964,0,7.594.94,10.143,3.678l3.433-9.155C408.235,271.98,403.454,267.965,394.242,267.965Z" fill="#000"/>
    <path id="Caminho_7" data-name="Caminho 7" d="M408.094,285.146c1.508,2.447,2.4,5.886,2.4,10.627,0,12.244-6.031,16.162-12.508,16.341l-4.372,11.661c.318.01.634.024.958.024,7.415,0,12.214-2.507,15.485-7.2h.218s-.109,1.636-.109,2.945v2.617c0,8.84-5.675,12.68-12.768,13.469l11.541,9.451c8.535-3.6,14.968-11.007,14.968-23.574V283.233a2.124,2.124,0,0,1,2.4-2.181h4.253V269.275H417.687a6.933,6.933,0,0,0-4.057,1.107Z" fill="#000"/>
    <path id="Caminho_8" data-name="Caminho 8" d="M346.261,283.451v8.206l13.69-16.164c-.333-4.282-2.551-6.218-7.256-6.218H339.5v11.777h4.363A2.135,2.135,0,0,1,346.261,283.451Z" fill="#000"/>
    <path id="Caminho_9" data-name="Caminho 9" d="M360,278.268l-13.374,15.791L360,305.011Z" fill="#000"/>
    <path id="Caminho_10" data-name="Caminho 10" d="M360,310.823v-3.445l-13.74-11.252v21.349c0,5.234,2.18,7.415,7.306,7.415h13.2V313.221H362.4A2.181,2.181,0,0,1,360,310.823Z" fill="#000"/>
    <path id="Caminho_11" data-name="Caminho 11" d="M346.915,260.223h12v-5.648l-12-1.963Z" fill="#000"/>
    <path id="Caminho_12" data-name="Caminho 12" d="M358.91,252.72v-5.255h-12v3.293Z" fill="#000"/>
    <path id="Caminho_13" data-name="Caminho 13" d="M315.859,259.476l14.159-8.946c-1.085-2.089-3.212-3.066-6.547-3.066H310.277v11.777h4.361A2.993,2.993,0,0,1,315.859,259.476Z" fill="#000"/>
    <path id="Caminho_14" data-name="Caminho 14" d="M330.887,281.168V254.88a12.317,12.317,0,0,0-.244-2.579l-13.677,8.641a3.492,3.492,0,0,1,.072.7v8.186Z" fill="#000"/>
    <path id="Caminho_15" data-name="Caminho 15" d="M330.887,310.823V283.536l-13.849-11.342v45.281c0,5.234,2.181,7.415,7.415,7.415h13.086V313.221h-4.253A2.182,2.182,0,0,1,330.887,310.823Z" fill="#000"/>
    <path id="Caminho_16" data-name="Caminho 16" d="M443.843,270.461c-3.627,1.669-6.419,4.426-6.419,8.955V285.3H449.05Z" fill="#000"/>
    <path id="Caminho_17" data-name="Caminho 17" d="M438.188,321.026l10.8-8.057a6.856,6.856,0,0,1-1.861-4.764c0-4.11,3.226-6.314,7.33-7.478l-3.24-9.237c-9.053,2.017-18.049,6.686-18.049,17.37A16.287,16.287,0,0,0,438.188,321.026Z" fill="#000"/>
    <path id="Caminho_18" data-name="Caminho 18" d="M455.526,315.4a9.723,9.723,0,0,1-5.058-1.25l-10.849,8.091a20.785,20.785,0,0,0,12.527,3.955,19.207,19.207,0,0,0,10.281-2.76l-3.077-8.773A10.374,10.374,0,0,1,455.526,315.4Z" fill="#000"/>
    <g id="Grupo_4" data-name="Grupo 4">
      <g id="Grupo_2" data-name="Grupo 2">
        <path id="Caminho_19" data-name="Caminho 19" d="M387.775,228.841h-2.694v2.5h3v.751h-3.9v-6.932h3.744v.751h-2.849V228.1h2.694Z" fill="#000"/>
        <path id="Caminho_20" data-name="Caminho 20" d="M397.993,231.865a4.45,4.45,0,0,1-1.831.329,3.24,3.24,0,0,1-3.424-3.508,3.45,3.45,0,0,1,3.62-3.64,3.723,3.723,0,0,1,1.645.308l-.215.731a3.256,3.256,0,0,0-1.4-.288,2.577,2.577,0,0,0-2.705,2.859,2.52,2.52,0,0,0,2.664,2.787,3.569,3.569,0,0,0,1.459-.288Z" fill="#000"/>
        <path id="Caminho_21" data-name="Caminho 21" d="M408.724,228.553c0,2.386-1.449,3.651-3.218,3.651-1.832,0-3.117-1.42-3.117-3.518,0-2.2,1.367-3.64,3.219-3.64C407.5,225.046,408.724,226.5,408.724,228.553Zm-5.379.113c0,1.481.8,2.808,2.212,2.808s2.221-1.307,2.221-2.88c0-1.378-.72-2.818-2.212-2.818S403.345,227.144,403.345,228.666Z" fill="#000"/>
        <path id="Caminho_22" data-name="Caminho 22" d="M413.664,231a3.174,3.174,0,0,0,1.605.452c.915,0,1.45-.483,1.45-1.183,0-.647-.371-1.018-1.306-1.378-1.131-.4-1.831-.987-1.831-1.964a2,2,0,0,1,2.242-1.882,3.152,3.152,0,0,1,1.533.339l-.247.73a2.768,2.768,0,0,0-1.316-.329c-.946,0-1.307.566-1.307,1.039,0,.648.421.967,1.378,1.337,1.173.453,1.769,1.018,1.769,2.037,0,1.069-.792,1.995-2.427,1.995a3.578,3.578,0,0,1-1.769-.443Z" fill="#000"/>
        <path id="Caminho_23" data-name="Caminho 23" d="M422.638,231a3.17,3.17,0,0,0,1.6.452c.915,0,1.45-.483,1.45-1.183,0-.647-.37-1.018-1.306-1.378-1.131-.4-1.83-.987-1.83-1.964a2,2,0,0,1,2.242-1.882,3.155,3.155,0,0,1,1.533.339l-.247.73a2.773,2.773,0,0,0-1.317-.329c-.946,0-1.306.566-1.306,1.039,0,.648.421.967,1.378,1.337,1.172.453,1.769,1.018,1.769,2.037,0,1.069-.792,1.995-2.427,1.995a3.578,3.578,0,0,1-1.769-.443Z" fill="#000"/>
        <path id="Caminho_24" data-name="Caminho 24" d="M432.628,225.159v6.932h-.894v-6.932Z" fill="#000"/>
        <path id="Caminho_25" data-name="Caminho 25" d="M437.974,231a3.167,3.167,0,0,0,1.6.452c.915,0,1.45-.483,1.45-1.183,0-.647-.37-1.018-1.306-1.378-1.131-.4-1.831-.987-1.831-1.964a2,2,0,0,1,2.242-1.882,3.148,3.148,0,0,1,1.533.339l-.247.73a2.768,2.768,0,0,0-1.316-.329c-.946,0-1.307.566-1.307,1.039,0,.648.422.967,1.379,1.337,1.172.453,1.769,1.018,1.769,2.037,0,1.069-.793,1.995-2.428,1.995a3.581,3.581,0,0,1-1.769-.443Z" fill="#000"/>
        <path id="Caminho_26" data-name="Caminho 26" d="M448.386,225.92h-2.109v-.761h5.133v.761h-2.119v6.171h-.9Z" fill="#000"/>
        <path id="Caminho_27" data-name="Caminho 27" d="M459.674,228.841h-2.7v2.5h3v.751h-3.9v-6.932h3.744v.751h-2.849V228.1h2.7Z" fill="#000"/>
        <path id="Caminho_28" data-name="Caminho 28" d="M470.889,229.047c-.052-.967-.113-2.13-.1-2.994h-.031c-.236.813-.524,1.677-.874,2.633l-1.224,3.364h-.678l-1.122-3.3c-.329-.977-.606-1.872-.8-2.7h-.02c-.021.864-.072,2.027-.135,3.065l-.184,2.973h-.854l.484-6.932h1.141l1.182,3.353c.288.853.525,1.614.7,2.334h.031c.174-.7.421-1.46.731-2.334l1.234-3.353h1.141l.432,6.932h-.874Z" fill="#000"/>
        <path id="Caminho_29" data-name="Caminho 29" d="M478.235,229.911l-.719,2.18h-.927l2.356-6.932h1.08l2.365,6.932h-.956l-.741-2.18Zm2.273-.7-.679-1.995c-.154-.452-.256-.864-.36-1.265h-.02c-.1.411-.216.833-.35,1.254l-.678,2.006Z" fill="#000"/>
      </g>
      <g id="Grupo_3" data-name="Grupo 3">
        <path id="Caminho_30" data-name="Caminho 30" d="M387.775,244.131h-2.694v2.5h3v.751h-3.9v-6.932h3.744v.751h-2.849v2.191h2.694Z" fill="#000"/>
        <path id="Caminho_31" data-name="Caminho 31" d="M392.738,240.541a12.839,12.839,0,0,1,1.9-.144,3.972,3.972,0,0,1,2.808.864,3.2,3.2,0,0,1,.976,2.489,3.664,3.664,0,0,1-1,2.7,4.27,4.27,0,0,1-3.064,1,14.783,14.783,0,0,1-1.625-.082Zm.895,6.13a5.637,5.637,0,0,0,.9.052,2.665,2.665,0,0,0,2.951-2.942,2.473,2.473,0,0,0-2.808-2.674,5.1,5.1,0,0,0-1.048.093Z" fill="#000"/>
        <path id="Caminho_32" data-name="Caminho 32" d="M403.973,240.449v4.1c0,1.554.688,2.212,1.614,2.212,1.028,0,1.687-.679,1.687-2.212v-4.1h.9v4.042c0,2.129-1.121,3-2.623,3-1.419,0-2.488-.812-2.488-2.962v-4.083Z" fill="#000"/>
        <path id="Caminho_33" data-name="Caminho 33" d="M418.067,247.155a4.45,4.45,0,0,1-1.831.329,3.24,3.24,0,0,1-3.425-3.508,3.45,3.45,0,0,1,3.62-3.64,3.728,3.728,0,0,1,1.646.308l-.216.731a3.247,3.247,0,0,0-1.4-.288,2.577,2.577,0,0,0-2.706,2.859,2.52,2.52,0,0,0,2.665,2.787,3.573,3.573,0,0,0,1.459-.288Z" fill="#000"/>
        <path id="Caminho_34" data-name="Caminho 34" d="M423.841,245.2l-.719,2.18H422.2l2.356-6.932h1.08L428,247.381h-.956l-.741-2.18Zm2.273-.7-.679-2c-.154-.452-.256-.864-.36-1.265h-.02c-.1.411-.216.833-.35,1.254l-.678,2.006Z" fill="#000"/>
        <path id="Caminho_35" data-name="Caminho 35" d="M437.2,247.155a4.452,4.452,0,0,1-1.83.329,3.239,3.239,0,0,1-3.425-3.508,3.449,3.449,0,0,1,3.62-3.64,3.719,3.719,0,0,1,1.645.308l-.216.731a3.253,3.253,0,0,0-1.4-.288,2.577,2.577,0,0,0-2.7,2.859,2.519,2.519,0,0,0,2.663,2.787,3.587,3.587,0,0,0,1.462-.288Z" fill="#000"/>
        <path id="Caminho_36" data-name="Caminho 36" d="M442.7,240.449v6.932h-.895v-6.932Z" fill="#000"/>
        <path id="Caminho_37" data-name="Caminho 37" d="M453.682,243.843c0,2.386-1.45,3.651-3.219,3.651-1.83,0-3.116-1.42-3.116-3.518,0-2.2,1.368-3.64,3.22-3.64C452.459,240.336,453.682,241.786,453.682,243.843Zm-5.378.113c0,1.481.8,2.808,2.211,2.808s2.221-1.307,2.221-2.88c0-1.378-.72-2.818-2.211-2.818S448.3,242.434,448.3,243.956Z" fill="#000"/>
        <path id="Caminho_38" data-name="Caminho 38" d="M458.335,247.381v-6.932h.976l2.222,3.507a19.5,19.5,0,0,1,1.244,2.253l.021-.011c-.082-.926-.1-1.769-.1-2.848v-2.9h.844v6.932h-.906l-2.2-3.517a22,22,0,0,1-1.3-2.315l-.032.011c.052.874.073,1.707.073,2.859v2.962Z" fill="#000"/>
        <path id="Caminho_39" data-name="Caminho 39" d="M469.714,245.2l-.719,2.18h-.927l2.356-6.932h1.08l2.365,6.932h-.956l-.741-2.18Zm2.273-.7-.679-2c-.154-.452-.256-.864-.36-1.265h-.02c-.1.411-.216.833-.35,1.254L469.9,244.5Z" fill="#000"/>
        <path id="Caminho_40" data-name="Caminho 40" d="M478.378,240.449h.894v6.181h2.962v.751h-3.856Z" fill="#000"/>
      </g>
    </g>
    <path id="Caminho_41" data-name="Caminho 41" d="M450.292,282.36c0-3.053,4.907-3.707,7.416-3.707,7.088,0,10.25,2.944,10.25,10.9v.436h-1.745a73.93,73.93,0,0,0-13.184,1.123l3.22,9.177a48.834,48.834,0,0,1,9.528-.813h1.3l14.7-10.96c-.461-11.662-6.213-20.556-23.956-20.556a39.1,39.1,0,0,0-12.274,1.811l4.749,13.538Z" fill="#000"/>
    <path id="Caminho_42" data-name="Caminho 42" d="M481.808,310.823V290.78l-13.637,10.17A15.851,15.851,0,0,1,461,313.84l2.987,8.517a17.1,17.1,0,0,0,4.951-5.973h.219a23.852,23.852,0,0,0-.11,2.4c0,3.271,1.963,6.107,7.089,6.107h12.432V313.221h-4.362A2.181,2.181,0,0,1,481.808,310.823Z" fill="#000"/>
  </g>
</svg>